<svg width="52" height="52" viewBox="0 0 52 52" fill="none" xmlns="http://www.w3.org/2000/svg">
<path d="M8 38.875V40.375V38.875ZM1.5 32.375H0H1.5ZM1.5 25.875H0H1.5ZM11.25 21H12.75H11.25ZM11.25 37.25H12.75H11.25ZM50.25 25.875H51.75H50.25ZM50.25 32.375H51.75H50.25ZM25.875 1.5V0V1.5ZM37.25 47V48.5V47ZM43.75 40.5H45.25H43.75ZM22.625 47H21.125H22.625ZM17.875 17.75C17.875 18.5784 18.5465 19.25 19.375 19.25C20.2034 19.25 20.875 18.5785 20.875 17.75L19.375 17.75L17.875 17.75ZM31.8398 15.1673L33.217 14.5728L33.2163 14.5713L31.8398 15.1673ZM32.3122 18.6448L30.8265 18.4377L30.8264 18.4387L32.3122 18.6448ZM28.0417 23.8795L28.5417 25.2937L28.5419 25.2936L28.0417 23.8795ZM25.875 26.9453H27.375V26.9445L25.875 26.9453ZM24.375 27.5C24.375 28.3284 25.0466 29 25.875 29C26.7034 29 27.375 28.3284 27.375 27.5H25.875H24.375ZM9.625 38.875V37.375H8V38.875V40.375H9.625V38.875ZM8 38.875V37.375C6.67392 37.375 5.40215 36.8482 4.46447 35.9105L3.40381 36.9712L2.34315 38.0319C3.84344 39.5321 5.87827 40.375 8 40.375V38.875ZM3.40381 36.9712L4.46447 35.9105C3.52678 34.9729 3 33.7011 3 32.375H1.5H0C0 34.4967 0.842855 36.5316 2.34315 38.0319L3.40381 36.9712ZM1.5 32.375H3V25.875H1.5H0V32.375H1.5ZM1.5 25.875H3C3 24.5489 3.52678 23.2771 4.46447 22.3395L3.40381 21.2788L2.34315 20.2181C0.842855 21.7184 0 23.7533 0 25.875H1.5ZM3.40381 21.2788L4.46447 22.3395C5.40215 21.4018 6.67392 20.875 8 20.875V19.375V17.875C5.87827 17.875 3.84344 18.7179 2.34315 20.2181L3.40381 21.2788ZM8 19.375V20.875H9.625V19.375V17.875H8V19.375ZM9.625 19.375V20.875C9.65815 20.875 9.68995 20.8882 9.71339 20.9116L10.774 19.851L11.8347 18.7903C11.2487 18.2042 10.4538 17.875 9.625 17.875V19.375ZM10.774 19.851L9.71339 20.9116C9.73683 20.9351 9.75 20.9668 9.75 21H11.25H12.75C12.75 20.1712 12.4208 19.3763 11.8347 18.7903L10.774 19.851ZM11.25 21H9.75V37.25H11.25H12.75V21H11.25ZM11.25 37.25H9.75C9.75 37.2832 9.73683 37.315 9.71339 37.3384L10.774 38.3991L11.8347 39.4597C12.4208 38.8737 12.75 38.0788 12.75 37.25H11.25ZM10.774 38.3991L9.71339 37.3384C9.68995 37.3618 9.65816 37.375 9.625 37.375V38.875V40.375C10.4538 40.375 11.2487 40.0458 11.8347 39.4597L10.774 38.3991ZM43.75 38.875V37.375H42.125V38.875V40.375H43.75V38.875ZM42.125 38.875V37.375C42.0918 37.375 42.0601 37.3618 42.0366 37.3384L40.976 38.3991L39.9153 39.4597C40.5013 40.0458 41.2962 40.375 42.125 40.375V38.875ZM40.976 38.3991L42.0366 37.3384C42.0132 37.3149 42 37.2832 42 37.25H40.5H39C39 38.0788 39.3292 38.8737 39.9153 39.4597L40.976 38.3991ZM40.5 37.25H42V21H40.5H39V37.25H40.5ZM40.5 21H42C42 20.9669 42.0132 20.9351 42.0366 20.9116L40.976 19.851L39.9153 18.7903C39.3292 19.3763 39 20.1712 39 21H40.5ZM40.976 19.851L42.0366 20.9116C42.0601 20.8882 42.0919 20.875 42.125 20.875V19.375V17.875C41.2962 17.875 40.5013 18.2042 39.9153 18.7903L40.976 19.851ZM42.125 19.375V20.875H43.75V19.375V17.875H42.125V19.375ZM43.75 19.375V20.875C45.0761 20.875 46.3479 21.4018 47.2855 22.3395L48.3462 21.2788L49.4069 20.2181C47.9066 18.7179 45.8717 17.875 43.75 17.875V19.375ZM48.3462 21.2788L47.2855 22.3395C48.2232 23.2771 48.75 24.5489 48.75 25.875H50.25H51.75C51.75 23.7533 50.9071 21.7184 49.4069 20.2181L48.3462 21.2788ZM50.25 25.875H48.75V32.375H50.25H51.75V25.875H50.25ZM50.25 32.375H48.75C48.75 33.7011 48.2232 34.9729 47.2855 35.9105L48.3462 36.9712L49.4069 38.0319C50.9071 36.5316 51.75 34.4967 51.75 32.375H50.25ZM48.3462 36.9712L47.2855 35.9105C46.3479 36.8482 45.0761 37.375 43.75 37.375V38.875V40.375C45.8717 40.375 47.9066 39.5321 49.4069 38.0319L48.3462 36.9712ZM8 19.375H9.5C9.5 15.0321 11.2252 10.867 14.2961 7.79613L13.2355 6.73547L12.1748 5.67481C8.54129 9.30832 6.5 14.2364 6.5 19.375H8ZM13.2355 6.73547L14.2961 7.79613C17.367 4.72522 21.5321 3 25.875 3V1.5V0C20.7364 0 15.8083 2.04129 12.1748 5.67481L13.2355 6.73547ZM25.875 1.5V3C30.2179 3 34.383 4.72522 37.4539 7.79613L38.5145 6.73547L39.5752 5.67481C35.9417 2.04129 31.0136 0 25.875 0V1.5ZM38.5145 6.73547L37.4539 7.79613C40.5248 10.867 42.25 15.0321 42.25 19.375H43.75H45.25C45.25 14.2364 43.2087 9.30832 39.5752 5.67481L38.5145 6.73547ZM32.375 47V48.5H37.25V47V45.5H32.375V47ZM37.25 47V48.5C39.3717 48.5 41.4066 47.6571 42.9069 46.1569L41.8462 45.0962L40.7855 44.0355C39.8479 44.9732 38.5761 45.5 37.25 45.5V47ZM41.8462 45.0962L42.9069 46.1569C44.4071 44.6566 45.25 42.6217 45.25 40.5H43.75H42.25C42.25 41.8261 41.7232 43.0979 40.7855 44.0355L41.8462 45.0962ZM43.75 40.5H45.25V38.875H43.75H42.25V40.5H43.75ZM29.125 50.25V48.75H25.875V50.25V51.75H29.125V50.25ZM25.875 50.25V48.75C25.4109 48.75 24.9658 48.5656 24.6376 48.2374L23.5769 49.2981L22.5162 50.3588C23.407 51.2496 24.6152 51.75 25.875 51.75V50.25ZM23.5769 49.2981L24.6376 48.2374C24.3094 47.9092 24.125 47.4641 24.125 47H22.625H21.125C21.125 48.2598 21.6254 49.468 22.5162 50.3588L23.5769 49.2981ZM22.625 47H24.125C24.125 46.5359 24.3094 46.0908 24.6376 45.7626L23.5769 44.7019L22.5162 43.6412C21.6254 44.532 21.125 45.7402 21.125 47H22.625ZM23.5769 44.7019L24.6376 45.7626C24.9658 45.4344 25.4109 45.25 25.875 45.25V43.75V42.25C24.6152 42.25 23.407 42.7504 22.5162 43.6412L23.5769 44.7019ZM25.875 43.75V45.25H29.125V43.75V42.25H25.875V43.75ZM29.125 43.75V45.25C29.5891 45.25 30.0342 45.4344 30.3624 45.7626L31.4231 44.7019L32.4838 43.6412C31.593 42.7504 30.3848 42.25 29.125 42.25V43.75ZM31.4231 44.7019L30.3624 45.7626C30.6906 46.0908 30.875 46.5359 30.875 47H32.375H33.875C33.875 45.7402 33.3746 44.532 32.4838 43.6412L31.4231 44.7019ZM32.375 47H30.875C30.875 47.4641 30.6906 47.9092 30.3624 48.2374L31.4231 49.2981L32.4838 50.3588C33.3746 49.468 33.875 48.2598 33.875 47H32.375ZM31.4231 49.2981L30.3624 48.2374C30.0342 48.5656 29.5891 48.75 29.125 48.75V50.25V51.75C30.3848 51.75 31.593 51.2496 32.4838 50.3588L31.4231 49.2981ZM19.375 17.75L20.875 17.75C20.875 16.6001 21.2714 15.4853 21.9974 14.5935L20.8341 13.6465L19.6708 12.6996C18.5093 14.1264 17.875 15.9101 17.875 17.75L19.375 17.75ZM20.8341 13.6465L21.9974 14.5935C22.7234 13.7017 23.7346 13.0874 24.8606 12.8541L24.5562 11.3853L24.2519 9.9165C22.4503 10.2898 20.8324 11.2727 19.6708 12.6996L20.8341 13.6465ZM24.5562 11.3853L24.8606 12.8541C25.9866 12.6208 27.1586 12.7827 28.1792 13.3127L28.8704 11.9814L29.5616 10.6502C27.9288 9.80233 26.0535 9.54321 24.2519 9.9165L24.5562 11.3853ZM28.8704 11.9814L28.1792 13.3127C29.1997 13.8426 30.0064 14.7081 30.4633 15.7634L31.8398 15.1673L33.2163 14.5713C32.4853 12.8829 31.1945 11.4981 29.5616 10.6502L28.8704 11.9814ZM31.8398 15.1673L30.4627 15.7618C30.8268 16.6053 30.953 17.5306 30.8265 18.4377L32.3122 18.6448L33.7978 18.852C34.0006 17.3974 33.7976 15.9177 33.217 14.5728L31.8398 15.1673ZM32.3122 18.6448L30.8264 18.4387C30.7005 19.3465 30.3274 20.2022 29.7481 20.9123L30.9104 21.8605L32.0727 22.8088C32.9996 21.6725 33.5964 20.3034 33.7979 18.851L32.3122 18.6448ZM30.9104 21.8605L29.7481 20.9123C29.1688 21.6225 28.4054 22.1597 27.5414 22.4654L28.0417 23.8795L28.5419 25.2936C29.9243 24.8046 31.1457 23.945 32.0727 22.8088L30.9104 21.8605ZM28.0417 23.8795L27.5417 22.4653C26.6152 22.7929 25.8131 23.3997 25.2459 24.2022L26.4709 25.0679L27.6959 25.9336C27.9048 25.638 28.2003 25.4144 28.5417 25.2937L28.0417 23.8795ZM26.4709 25.0679L25.2459 24.2022C24.6788 25.0048 24.3745 25.9634 24.375 26.9461L25.875 26.9453L27.375 26.9445C27.3748 26.5825 27.4869 26.2293 27.6959 25.9336L26.4709 25.0679ZM25.875 26.9453H24.375V27.5H25.875H27.375V26.9453H25.875ZM25.875 35.625V34.125C26.0573 34.125 26.2322 34.1974 26.3611 34.3264L25.3005 35.387L24.2398 36.4477C24.6735 36.8814 25.2617 37.125 25.875 37.125V35.625ZM25.3005 35.387L26.3611 34.3264C26.4901 34.4553 26.5625 34.6302 26.5625 34.8125H25.0625H23.5625C23.5625 35.4258 23.8061 36.014 24.2398 36.4477L25.3005 35.387ZM25.0625 34.8125H26.5625C26.5625 34.9948 26.4901 35.1697 26.3611 35.2986L25.3005 34.238L24.2398 33.1773C23.8061 33.611 23.5625 34.1992 23.5625 34.8125H25.0625ZM25.3005 34.238L26.3611 35.2986C26.2322 35.4276 26.0573 35.5 25.875 35.5V34V32.5C25.2617 32.5 24.6735 32.7436 24.2398 33.1773L25.3005 34.238ZM25.875 35.625V37.125C26.4883 37.125 27.0765 36.8814 27.5102 36.4477L26.4495 35.387L25.3889 34.3264C25.5178 34.1974 25.6927 34.125 25.875 34.125V35.625ZM26.4495 35.387L27.5102 36.4477C27.9439 36.014 28.1875 35.4258 28.1875 34.8125H26.6875H25.1875C25.1875 34.6302 25.2599 34.4553 25.3889 34.3264L26.4495 35.387ZM26.6875 34.8125H28.1875C28.1875 34.1992 27.9439 33.611 27.5102 33.1773L26.4495 34.238L25.3889 35.2986C25.2599 35.1697 25.1875 34.9948 25.1875 34.8125H26.6875ZM26.4495 34.238L27.5102 33.1773C27.0765 32.7436 26.4883 32.5 25.875 32.5V34V35.5C25.6927 35.5 25.5178 35.4276 25.3889 35.2986L26.4495 34.238Z" fill="#111D01"/>
</svg>
