<svg width="55" height="55" viewBox="0 0 55 55" fill="none" xmlns="http://www.w3.org/2000/svg">
<path d="M15.228 31.0129C15.6096 31.5912 16.1325 32.0625 16.7473 32.382C17.3621 32.7015 18.0483 32.8587 18.7409 32.8387M18.7409 32.8387C19.6868 32.9224 20.6276 32.6296 21.3589 32.0238C22.0902 31.418 22.553 30.5481 22.6467 29.6031C22.5587 28.6539 22.0984 27.7782 21.3664 27.1676C20.6345 26.5569 19.6905 26.2609 18.7409 26.3444C17.7951 26.4215 16.8571 26.1227 16.1302 25.5126C15.4034 24.9026 14.9463 24.0306 14.8582 23.0858C14.952 22.1451 15.4115 21.2789 16.1377 20.6738C16.8639 20.0686 17.7987 19.7728 18.7409 19.8502M18.7409 32.8387V35.0111M18.7409 19.8502C19.4345 19.8234 20.1232 19.9777 20.7392 20.2978C21.3551 20.6179 21.8771 21.0929 22.2538 21.676M18.7409 19.8502V17.6778M32.1222 35.0111V28.0778M40.2111 35.0111V21.1444M3.23333 1.5H51.7667C51.7667 1.5 53.5 1.5 53.5 3.23333V9.01111C53.5 9.01111 53.5 10.7444 51.7667 10.7444H3.23333C3.23333 10.7444 1.5 10.7444 1.5 9.01111V3.23333C1.5 3.23333 1.5 1.5 3.23333 1.5Z" stroke="#111D01" stroke-width="3" stroke-linecap="round" stroke-linejoin="round"/>
<path d="M27.5 51.1888V41.3666M27.5 51.1888C29.4182 51.1888 30.9667 52.2288 30.9667 53.4999M27.5 51.1888C25.5818 51.1888 24.0333 52.2288 24.0333 53.4999M1.5 41.3666H53.5M4.96667 10.7444H50.0333V41.3666H4.96667V10.7444Z" stroke="#111D01" stroke-width="3" stroke-linecap="round" stroke-linejoin="round"/>
</svg>
