<svg width="26" height="47" viewBox="0 0 26 47" fill="none" xmlns="http://www.w3.org/2000/svg">
<path d="M2.197 11.2305C0.201449 10.3895 -0.646659 7.94053 0.550671 6.15947C2.97028 2.59737 7.01126 0 12.3494 0C18.2113 0 22.2273 2.64684 24.2728 5.96158C26.0189 8.80632 27.0416 14.1247 24.3476 18.0826C21.3543 22.4611 18.4857 23.7968 16.9391 26.6168C16.565 27.2847 16.3405 27.8289 16.1908 28.9421C15.9663 30.7479 14.4696 32.1579 12.6238 32.1579C10.4536 32.1579 8.68254 30.3026 8.93198 28.1505C9.08165 26.8889 9.38098 25.5779 10.0794 24.3411C12.0001 20.9026 15.6919 18.8742 17.8371 15.8316C20.1071 12.6405 18.8349 6.67895 12.3993 6.67895C9.48076 6.67895 7.58498 8.18789 6.4126 9.99368C5.53955 11.4037 3.71861 11.8489 2.197 11.2305ZM17.3632 42.0526C17.3632 44.7737 15.1182 47 12.3743 47C9.63042 47 7.38543 44.7737 7.38543 42.0526C7.38543 39.3316 9.63042 37.1053 12.3743 37.1053C15.1182 37.1053 17.3632 39.3316 17.3632 42.0526Z" fill="#111D01"/>
</svg>
